<?xml version="1.0" standalone="no"?>
<!DOCTYPE svg PUBLIC "-//W3C//DTD SVG 20010904//EN"
 "http://www.w3.org/TR/2001/REC-SVG-20010904/DTD/svg10.dtd">
<svg version="1.0" xmlns="http://www.w3.org/2000/svg"
 width="260.000000pt" height="260.000000pt" viewBox="0 0 260.000000 260.000000"
 preserveAspectRatio="xMidYMid meet">
<metadata>
Created by potrace 1.11, written by Peter Selinger 2001-2013
</metadata>
<g transform="translate(0.000000,260.000000) scale(0.100000,-0.100000)"
fill="#000000" stroke="none">
<path d="M1200 2115 c-87 -16 -197 -60 -281 -110 -69 -43 -75 -50 -55 -71 35
-34 31 -61 -17 -117 -25 -29 -47 -64 -49 -77 -2 -16 -10 -26 -24 -28 -19 -3
-22 3 -29 55 -4 32 -9 62 -12 66 -5 8 -24 -14 -65 -75 l-25 -37 17 -74 c10
-41 21 -84 24 -94 5 -16 -3 -26 -35 -48 -51 -33 -109 -90 -110 -107 -10 -99
-6 -167 17 -276 2 -12 11 -22 20 -22 24 0 122 -99 134 -136 9 -27 25 -41 78
-71 37 -20 68 -37 70 -38 1 -2 -5 -30 -14 -64 -16 -57 -19 -61 -46 -61 -29 0
-29 0 19 -42 276 -239 686 -265 988 -64 179 119 306 308 349 518 18 85 21 168
7 168 -10 0 -60 -56 -62 -68 -3 -34 -12 -59 -23 -70 -10 -10 -16 -1 -30 50 -9
35 -28 79 -41 99 -20 31 -32 38 -84 49 -34 7 -71 21 -83 31 -38 34 -45 26 -26
-28 13 -35 26 -41 46 -21 10 10 18 6 39 -15 l28 -27 -25 -17 c-13 -10 -51 -36
-84 -59 l-60 -41 -48 99 c-27 54 -53 98 -58 98 -6 0 -10 -1 -10 -3 0 -15 92
-223 100 -225 6 -2 26 6 46 17 19 12 37 21 39 21 2 0 -4 -24 -14 -53 -13 -37
-33 -68 -66 -98 -44 -42 -46 -47 -47 -99 -1 -52 -4 -58 -47 -100 -26 -25 -63
-64 -84 -87 -21 -24 -43 -43 -50 -44 -80 -7 -77 -8 -117 65 -35 64 -37 70 -26
108 11 36 9 48 -17 123 l-29 84 -97 -5 -96 -5 -53 52 -53 52 7 81 c6 83 12 99
59 151 15 17 33 38 40 48 7 10 25 20 41 23 51 8 138 25 155 30 11 3 20 -5 29
-25 6 -16 29 -41 49 -54 l38 -25 21 20 c18 19 25 20 65 10 24 -7 51 -14 60
-18 17 -6 57 28 57 50 0 9 -15 17 -40 21 -28 5 -46 15 -61 36 -25 36 -39 37
-39 3 0 -16 -5 -24 -12 -22 -11 4 -22 20 -48 78 -4 8 -21 23 -39 33 -30 18
-31 18 -31 0 0 -10 14 -27 30 -36 33 -20 35 -24 20 -47 -8 -12 -17 -7 -52 32
l-43 47 -40 -19 c-25 -11 -50 -34 -65 -59 -18 -30 -30 -39 -45 -36 -11 2 -29
4 -41 4 -18 1 -21 7 -20 49 l1 47 48 -1 c26 0 47 1 47 3 0 1 -9 17 -20 35 -11
18 -20 36 -20 39 0 3 18 12 40 19 22 7 47 24 57 37 10 12 26 23 36 23 13 0 17
5 14 15 -9 21 14 31 25 11 6 -11 23 -16 57 -16 41 0 49 3 59 25 8 17 16 23 28
18 13 -5 16 -3 11 10 -6 15 3 22 26 18 4 0 7 4 7 9 0 6 -13 10 -29 10 -35 0
-62 27 -41 40 18 11 8 22 -13 14 -21 -8 -30 -34 -17 -49 7 -9 7 -21 -1 -39
-17 -36 -56 -36 -70 1 -7 20 -13 23 -21 15 -7 -7 -22 -12 -35 -12 -20 0 -23 4
-19 26 3 15 6 27 8 28 7 3 37 22 63 40 24 17 42 20 129 17 55 -1 115 -3 131
-3 97 -2 225 3 225 10 0 10 -83 62 -152 94 -53 25 -127 50 -189 64 -59 13
-238 13 -309 -1z m40 -240 c25 -40 22 -49 -20 -63 -28 -10 -30 -10 -30 16 -1
23 -2 25 -11 10 -10 -19 -49 -25 -49 -8 0 5 12 21 27 35 15 14 23 25 18 26 -6
1 1 5 15 9 14 4 26 8 27 9 1 1 11 -15 23 -34z m528 -1027 c-13 -24 -32 -44
-42 -46 -17 -4 -18 1 -13 34 4 27 16 48 39 67 31 27 33 27 36 7 2 -11 -7 -39
-20 -62z"/>
<path d="M96 2055 l-36 -55 0 -222 0 -222 96 -97 c53 -54 93 -102 91 -106 -23
-38 -24 -785 -1 -864 4 -16 55 -21 69 -7 17 16 25 556 12 770 l-7 117 93 94
92 94 0 224 -1 224 -37 54 -37 53 0 -259 0 -259 -73 -72 -74 -73 -74 70 -75
70 1 261 c0 143 0 260 -1 260 -1 0 -18 -25 -38 -55z"/>
<path d="M246 1858 c1 -139 2 -256 3 -260 0 -5 17 -8 36 -8 l35 0 0 260 0 260
-38 0 -37 0 1 -252z"/>
<path d="M2253 1738 c0 -205 -4 -436 -8 -513 -11 -222 -5 -721 10 -745 5 -8
46 -7 60 2 16 10 20 136 17 498 -8 1105 -9 1055 13 1052 71 -13 117 -132 116
-307 0 -145 -25 -294 -52 -310 -20 -13 -7 -25 25 -25 30 0 36 5 54 43 30 61
42 147 43 288 1 196 -61 325 -178 374 -20 8 -50 15 -67 15 l-32 0 -1 -372z"/>
</g>
</svg>
