<?xml version="1.0" standalone="no"?>
<!DOCTYPE svg PUBLIC "-//W3C//DTD SVG 20010904//EN"
 "http://www.w3.org/TR/2001/REC-SVG-20010904/DTD/svg10.dtd">
<svg version="1.0" xmlns="http://www.w3.org/2000/svg"
 width="260.000000pt" height="260.000000pt" viewBox="0 0 260.000000 260.000000"
 preserveAspectRatio="xMidYMid meet">
<metadata>
Created by potrace 1.11, written by Peter Selinger 2001-2013
</metadata>
<g transform="translate(0.000000,260.000000) scale(0.100000,-0.100000)"
fill="#000000" stroke="none">
<path d="M1220 2160 c-25 -5 -58 -12 -75 -15 -58 -12 -190 -71 -257 -115 -66
-43 -67 -45 -48 -62 44 -41 34 -80 -37 -152 -13 -13 -26 -37 -29 -55 -4 -21
-12 -31 -25 -31 -24 0 -27 7 -34 76 -4 32 -8 60 -10 62 -2 2 -23 -25 -48 -60
-45 -62 -46 -65 -36 -108 6 -25 12 -52 14 -60 2 -8 8 -34 13 -57 l10 -41 -53
-36 c-87 -61 -105 -86 -109 -161 -1 -35 1 -92 6 -126 16 -118 20 -129 44 -129
22 0 120 -103 134 -142 11 -29 26 -42 84 -73 39 -21 72 -39 73 -40 1 0 -6 -30
-15 -65 -15 -52 -22 -64 -42 -67 -13 -2 -25 -5 -27 -7 -8 -7 130 -109 198
-145 143 -77 284 -107 457 -98 126 7 197 25 311 78 168 78 303 206 393 369 67
123 107 286 99 405 -2 29 -76 -54 -79 -89 -1 -15 -8 -37 -16 -48 -14 -19 -15
-18 -26 23 -6 24 -14 53 -17 64 -3 11 -17 39 -32 62 -23 38 -32 44 -81 54 -55
11 -110 37 -110 51 0 4 -7 5 -15 2 -13 -5 -13 -10 1 -42 19 -46 18 -46 44 -32
18 10 26 8 46 -11 13 -12 24 -26 24 -30 0 -4 -39 -32 -87 -63 l-88 -57 -43 93
c-24 51 -48 98 -54 105 -13 16 -32 6 -20 -10 5 -7 28 -59 51 -117 24 -58 44
-106 46 -108 2 -2 22 6 45 18 23 12 44 20 46 18 2 -2 -3 -26 -11 -52 -11 -36
-29 -63 -68 -100 l-54 -51 3 -58 c3 -53 1 -58 -24 -74 -15 -10 -36 -29 -47
-43 -11 -14 -40 -46 -65 -72 -38 -40 -51 -47 -89 -50 l-45 -3 -39 69 c-38 67
-39 72 -29 117 11 46 1 94 -43 201 -6 14 -20 16 -107 11 l-100 -5 -58 56 c-31
30 -56 56 -55 58 2 2 6 41 9 88 4 46 12 91 19 100 38 49 110 130 114 127 2 -3
22 -1 44 4 21 5 56 12 77 15 20 3 47 7 59 9 17 3 23 -3 28 -25 4 -18 21 -38
47 -55 l40 -27 23 22 c22 21 23 21 89 4 73 -18 86 -14 100 32 6 19 2 22 -38
28 -36 6 -49 13 -63 37 -20 33 -36 33 -41 1 -4 -26 -6 -27 -32 -5 -11 10 -20
29 -20 43 0 17 -10 32 -33 48 -40 27 -47 27 -47 4 0 -10 14 -26 30 -35 34 -21
37 -29 14 -48 -10 -9 -18 -9 -22 -2 -4 6 -22 28 -40 50 l-32 40 -41 -20 c-22
-11 -53 -39 -70 -64 -29 -41 -32 -43 -67 -37 -20 4 -39 8 -41 10 -2 2 -5 24
-6 49 l-3 45 53 0 54 0 -25 43 -24 44 42 12 c23 7 50 24 61 37 10 13 27 24 38
24 12 0 19 7 19 18 0 28 12 34 26 14 9 -13 27 -19 62 -21 46 -2 50 0 56 24 4
16 13 25 26 25 13 0 18 5 14 15 -4 10 0 15 15 15 12 0 21 5 21 11 0 6 -12 8
-28 6 -21 -4 -32 1 -42 16 -9 15 -10 22 -1 25 6 2 11 8 11 13 0 16 -18 10 -40
-13 -18 -19 -18 -24 -6 -37 13 -12 13 -18 0 -43 -18 -35 -50 -37 -66 -3 -9 19
-16 24 -32 19 -12 -3 -23 -6 -26 -6 -44 -1 -39 31 11 72 47 38 93 50 164 44
43 -3 297 -4 363 -1 12 1 22 3 22 7 0 10 -155 99 -210 120 -126 49 -333 72
-450 50z m15 -257 c28 -42 22 -56 -29 -69 -26 -6 -29 -5 -23 15 6 25 1 27 -19
6 -19 -19 -43 -20 -40 -1 2 15 66 86 78 86 4 0 19 -17 33 -37z m580 -1023 c-2
-10 -16 -39 -30 -64 -18 -31 -31 -43 -42 -39 -26 10 -9 74 29 105 36 29 49 28
43 -2z"/>
<path d="M215 2150 c-19 -7 -20 -17 -21 -274 0 -146 2 -266 5 -267 3 -1 21 -2
39 -3 l32 -2 0 272 c0 251 -1 272 -18 276 -9 3 -26 2 -37 -2z"/>
<path d="M2300 1753 c-1 -219 -4 -445 -8 -503 -8 -136 -8 -498 1 -670 3 -74 7
-137 7 -140 0 -5 50 -5 70 -1 15 3 17 330 6 1199 -6 470 -8 453 49 416 67 -44
95 -152 90 -348 -4 -139 -19 -226 -50 -285 l-14 -28 32 2 c18 2 36 3 40 4 9 1
36 61 43 95 27 120 31 333 9 418 -38 144 -137 238 -249 238 l-26 0 0 -397z"/>
<path d="M33 2086 l-33 -54 0 -234 0 -233 96 -95 95 -95 -7 -130 c-12 -219 -4
-788 11 -803 9 -9 66 -9 72 0 17 29 26 689 11 850 l-7 78 84 85 c47 47 91 95
98 108 11 17 14 73 13 247 l-1 226 -34 52 c-18 29 -35 51 -38 49 -2 -3 -4
-123 -3 -266 l0 -262 -77 -74 c-58 -56 -80 -72 -92 -65 -9 5 -45 38 -80 73
l-64 65 1 266 c0 146 -3 266 -6 266 -4 0 -22 -25 -39 -54z"/>
</g>
</svg>
