<?xml version="1.0" encoding="UTF-8"?><svg id="Layer_1" xmlns="http://www.w3.org/2000/svg" viewBox="0 0 654.5 580.47"><defs><style>.cls-1{fill:#fea61e;}.cls-2{fill:#0e75b8;}.cls-3{fill:#6c5098;}.cls-4{fill:#0b9166;}</style></defs><path class="cls-2" d="M401.16,188.8c.31,36.2-.37,80.58-.27,117.61.08,27.18.03,54.73,0,81.89-.06,62.1.91,124.35,0,186.35-.02,1.1-.66,2.18-1.25,3.11h0c-1,1.56-2.68,2.6-4.53,2.69-2.68.14-5.39-.91-7.37-2.89l-118.2-118.74c-13.12-13.17-27.52-26.01-40.53-38.97C153.62,344.72,78.66,267.8,2.49,192.87c-1.85-1.6-2.7-4.15-2.45-6.48.31-2.93,2.89-5.1,5.84-5.1l389.57-.17c.07,0,.14,0,.21.01.08-.01.16-.01.24-.01,2.9,0,5.26,2.36,5.26,5.26"/><path class="cls-4" d="M185.64,425.01c3.27-3.11,8.42-3.06,11.66.08,11.41,11.05,23.55,22.06,34.76,33.32l107.17,107.66c5.29,5.31,1.53,14.37-5.97,14.37l-284.27.04c-9.26-.11-12.28-7.21-5.98-14.06,48.38-46.37,94.11-95.27,142.63-141.4Z"/><path class="cls-3" d="M508.05,188.1c1.76-.2,4.06,1.09,5.41,2.21l84.98,84.02c4,3.53,4.02,8.49,0,12.04l-161.03,161.02c-.7.7-1.51,1.3-2.42,1.72-9.68,4.49-9.44-6.24-9.51-13.78-.47-55.49.03-111.21.13-166.78l75.27-75.73c1.58-1.3,5.37-4.52,7.16-4.73Z"/><path class="cls-1" d="M592.17.15c19.62-.1,39.11-.52,58.68.73,3.5.94,4.16,3.57,3.32,6.31-.4,1.3-1.18,2.46-2.15,3.42l-217.09,214.3s-.06.04-.1.06c-3.87,2.45-8.93-.52-8.94-5.1l-.57-213.57c-.26-3.18,1.15-5.48,4.51-5.49,54.1.64,108.35-.39,162.34-.66Z"/></svg>